<svg xmlns="http://www.w3.org/2000/svg" viewBox="0 0 283.5 283.5"><path d="M132.4 112.4c-1.3-.5-66.3 13.3-66.6 13.8l-8.4 35.7c.3.3 21.9-3.3 22.5-3.8.7-.6 17.3-25.9 17.6-25.7.3.2 15.4 17.3 15.4 17.3-.2.4-45.4 35-46.6 36.3-1.2 1.4-7.6 39-7.5 39.2.1.4 75.7-8.2 76.1-8.4 0 0 2.1-27 2.1-27.4.3-1.1-29.7 1.2-30 1.1.2-.5 35.5-38.2 35.5-38.7-.2-.1-9.1-39-10.1-39.4zM226.3 144.3c-.3-.1-53.1 1.6-53.4 1.5l.6-11.3c.3-.3 44.4-4.6 44.6-4.7.3-.5-.4-25.8-.7-26.1-.2-.3-68.4 6.3-68.4 6.3 0 .4-.5 24.8-.5 24.8-.1.3-.6 34.9-.6 34.9.2.3 60.7-.6 60.7-.6l-21.1 29.5s-12.9-18.1-13-18.3c-.4-.2-29.1 1.4-29.4 1.7-.1.2 11.5 33.4 11.5 33.4l67.4-3.8c.2-.1 1.7-33.7 1.6-34.1.1-.1 1-33 .7-33.2zM145.3 83.8c-1.7.1-22.9-16.6-24.7-15.9-1.2.4-9.4 24.5-9.4 24.5-2 .5-27.5-15.1-29.3-14.9-.2 1 2.4 17.2 3.9 25.3l.9 4.2c1.6 1.2 86.4-19.5 86.4-19.5L162.2 59c-1.5 1.3-15.8 24.3-16.9 24.8zM41.7 127.6l-1.3 14c-.7-.6-1.5-.9-2.4-1l-18.4-1.7c-.9-.1-1.8.1-2.5.6l.6-6.9c1 .6 1.8.9 2.4.9l16.3 1.5.5-6c.1-.8-.2-1.7-.7-2.8l5.5 1.4zM44.7 117.1c-.7 2.8-2.5 4.9-5.4 6.2-2.9 1.4-5.9 1.6-9.2.7-3.3-.9-5.8-2.6-7.6-5.2-1.8-2.6-2.3-5.3-1.6-8.1.7-2.8 2.6-4.9 5.4-6.3 2.9-1.4 5.9-1.6 9.2-.7 3.3.9 5.8 2.6 7.6 5.2 1.8 2.7 2.3 5.4 1.6 8.2zM25.4 112c-.3 1.1 0 2.3.9 3.6 1.1 1.5 2.8 2.6 5.1 3.2 2.3.6 4.3.5 6-.2 1.4-.7 2.3-1.6 2.6-2.6.3-1.1 0-2.3-.9-3.6-1.1-1.5-2.8-2.6-5.1-3.2-2.3-.6-4.3-.5-6 .3-1.4.5-2.3 1.4-2.6 2.5zM52.1 97.2c-1.3 2.6-3.5 4.2-6.6 4.9s-6.1.3-9.2-1.2c-3-1.5-5.1-3.8-6.4-6.7-1.2-2.9-1.2-5.7.1-8.2 1.3-2.6 3.5-4.2 6.6-5 3.1-.7 6.1-.3 9.2 1.2 3 1.5 5.1 3.8 6.4 6.7 1.3 3 1.2 5.7-.1 8.3zm-17.7-9.1c-.5 1-.5 2.2.1 3.7.8 1.7 2.2 3.1 4.3 4.2 2.1 1.1 4.1 1.4 5.9 1.1 1.5-.4 2.6-1 3.1-2s.5-2.3-.1-3.7c-.8-1.7-2.2-3.2-4.3-4.2-2.1-1.1-4.1-1.4-5.9-1-1.6.2-2.6.9-3.1 1.9zM55.7 76.5l-1.1 1.4 3.8 2.9c.7.6 1.6.8 2.5.8l-4.3 5.6c-.2-.9-.7-1.6-1.4-2.1L40.5 73.6c-.7-.6-1.6-.9-2.5-.8l5.2-6.6c3.3-4.2 7.1-4.7 11.3-1.4 1.6 1.2 2.6 2.8 3.1 4.6.6 2.4-.1 4.7-1.9 7.1zM46.3 70l-.7.9L51 75l.7-.9c1.7-2.2 1.5-4-.4-5.5-1-.8-1.9-1-2.8-.7-.6.3-1.3 1-2.2 2.1zM66.9 48.3l-3.6 3.2 10.9 12.2c.4.4 1.1.9 2.2 1.4l-5.2 4.7c0-.9-.3-1.7-1-2.4L59.3 55l-3.6 3.2c-.6.5-1.1 1.4-1.5 2.5l-3-4.7 14-12.4 4.3 3.5c-1 .2-1.9.6-2.6 1.2zM94.2 53.6c-1.4 1-3.2.7-5.2-.9-1.5-1.1-2.4-1.8-2.9-2.2l-1.8-.9-1.2.7 2.8 4.6c.5.8 1.1 1.3 2 1.7l-6.1 3.6c.1-.9-.1-1.7-.6-2.5l-9.5-15.9c-.5-.8-1.1-1.4-2-1.7l7.2-4.3c4.6-2.7 8.2-1.8 11.1 2.8 1.5 2.6 1.6 5.1.2 7.4 1.3.5 2.4 1.1 3.4 1.9 1.1.9 1.9 1.4 2.4 1.6.8.3 1.7.4 2.6.1-.2.5-.3 1-.5 1.5-.6 1.2-1.2 2-1.9 2.5zM78.5 40.5l-.9.6 3.2 5.4 1-.6c1.2-.7 1.9-1.4 2.2-2.1.4-.8.2-1.8-.5-3l-.1-.1c-.6-1-1.4-1.5-2.4-1.4-.5.1-1.3.5-2.5 1.2zM106.3 48.3c-2.7 1-5.4.7-8.2-.8-2.8-1.6-4.7-3.9-5.9-7.1-1.2-3.3-1.2-6.4-.1-9.3 1.1-3 3-5 5.7-6s5.5-.7 8.2.8c2.8 1.6 4.7 3.9 5.9 7.1 1.2 3.2 1.2 6.3.1 9.2-1.1 3.1-3 5.1-5.7 6.1zm-6.9-18.7c-1.1.4-1.9 1.3-2.4 2.8-.6 1.8-.5 3.8.3 6s2 3.8 3.6 4.8c1.4.8 2.6 1 3.6.6 1.1-.4 1.9-1.3 2.4-2.8.6-1.8.5-3.8-.3-6s-2-3.8-3.7-4.7c-1.2-.9-2.4-1.1-3.5-.7zM126.8 42.9c-2.9.4-5.5-.4-7.8-2.6-2.4-2.1-3.8-4.8-4.3-8.2-.5-3.4.1-6.4 1.8-9.1 1.7-2.7 4-4.2 6.8-4.6 2.9-.4 5.5.4 7.9 2.5 2.4 2.1 3.8 4.8 4.3 8.2.5 3.4-.1 6.4-1.8 9.1-1.7 2.8-4 4.3-6.9 4.7zM124 23.2c-1.1.2-2.1.9-2.9 2.2-1 1.6-1.3 3.6-.9 5.9.3 2.3 1.2 4.1 2.5 5.4 1.2 1 2.3 1.5 3.4 1.3 1.1-.2 2.1-.9 2.9-2.2 1-1.6 1.3-3.6 1-5.9-.3-2.3-1.2-4.1-2.6-5.4-1.1-1-2.2-1.5-3.4-1.3zM145.9 33.9l-1.8-.1-.2 4.8c0 .9.2 1.7.8 2.5l-7-.3c.6-.7.9-1.5.9-2.4l.9-18.5c0-.9-.2-1.8-.7-2.5l8.4.4c5.3.3 7.9 3.1 7.7 8.5-.1 2-.7 3.7-2 5.2-1.8 1.7-4 2.5-7 2.4zm-.2-11.5l-1.1-.1-.3 6.9 1.2.1c2.7.1 4.1-1.1 4.3-3.5.1-1.3-.3-2.2-1.1-2.7-.5-.4-1.5-.6-3-.7zM176.3 47.7c-1.7-.4-2.6-1.9-2.8-4.5-.1-1.8-.2-3-.3-3.6-.1-.5-.3-1.1-.6-1.9l-1.3-.4-1.6 5.1c-.3.9-.2 1.7.1 2.6l-6.7-2.1c.7-.5 1.2-1.2 1.5-2.1l5.6-17.6c.3-.9.3-1.8-.1-2.6l8 2.5c5.1 1.6 6.8 5 5.2 10.1-.9 2.9-2.7 4.6-5.5 5.1.5 1.3.8 2.6.8 3.8.1 1.4.2 2.4.4 2.9.3.8.8 1.5 1.6 2l-1.5.6c-1 .2-2 .3-2.8.1zm-.7-20.5l-1-.3-1.9 6 1.1.4c1.3.4 2.3.5 3.1.3.9-.3 1.5-1.1 1.9-2.3v-.1c.4-1.2.2-2-.5-2.7-.5-.5-1.4-.9-2.7-1.3zM188.3 53.2c-2.5-1.4-4.2-3.6-4.8-6.7-.7-3.1-.2-6.1 1.4-9.1 1.6-3 3.9-5.1 6.8-6.2 2.9-1.2 5.7-1.1 8.2.3 2.6 1.4 4.2 3.6 4.8 6.7.7 3.1.2 6.1-1.4 9.1-1.6 3-3.9 5.1-6.8 6.2-2.9 1.1-5.7 1-8.2-.3zm9.4-17.6c-1-.5-2.2-.5-3.7.1-1.7.7-3.1 2.1-4.2 4.2s-1.5 4-1.2 5.9c.3 1.5 1 2.6 2 3.1s2.2.5 3.7-.1c1.8-.7 3.2-2.1 4.3-4.2 1.1-2.1 1.5-4 1.1-5.9-.4-1.5-1-2.6-2-3.1zM209.9 67.2c-.4-.2-1.3-.8-2.6-1.7-2.6-2-4.1-4.5-4.4-7.4-.2-1.5 0-3.2.6-4.9.5-1.7 1.3-3.2 2.3-4.4 2.3-2.8 5.1-4.4 8.5-4.6 3-.2 5.8.6 8.4 2.6.4.3.8.7 1.1 1.2.4.5.6.7.7.8.4.3 1 .4 1.7.3l-4.5 5.6c-.3-1.9-1.1-3.4-2.5-4.5-.6-.5-1.2-.8-1.9-.9-2.7-.6-5.1.4-7.2 3-1.2 1.5-1.8 3-1.9 4.7-.1 1.8.6 3.3 2 4.5 1.5 1.2 3.1 1.7 5 1.6l-4.5 5.6c-.3-.7-.5-1.2-.8-1.5zM219 76.9c.8-.1 1.2-.2 1.3-.4l4.9-8.8-2.7.3-4.6 3.9c-.7.6-1.1 1.4-1.3 2.3l-4.6-5.4c.9-.1 1.7-.4 2.4-1l14.1-12c.7-.6 1.2-1.4 1.3-2.2l4.6 5.4c-.9.1-1.7.4-2.4 1l-3.5 3 6.8-.9c.3 0 .6-.4.9-1.1l5 5.8c-1.3-.4-2.1-.6-2.5-.5l-7.2.8-7.1 13.6c-.2.4-.3 1.2-.2 2.4l-5.2-6.2zM231.5 95.2l-7.2-12.1c.9.1 1.8-.1 2.5-.6l15.9-9.5c.8-.5 1.4-1.1 1.7-2l7.1 11.9-4.6 2.8c.1-.9-.1-1.8-.5-2.5l-2.7-4.5-3.1 1.8 2 3.4c.3.5.8 1 1.5 1.3l-5 3c0-.8-.2-1.5-.5-2l-2-3.3-5.3 3.2 3.1 5.2c.4.7 1.1 1.3 2.2 1.9l-5.1 2zM237 109.7c-.7-1.6-.1-3.2 1.8-5 1.4-1.2 2.2-2.1 2.6-2.5.3-.3.7-.9 1.2-1.7l-.5-1.3-5 2c-.9.3-1.5.9-2 1.7l-2.6-6.6c.9.2 1.7.2 2.6-.1l17.2-6.7c.9-.3 1.5-.9 2-1.7l3.1 7.9c1.9 4.9.4 8.4-4.6 10.4-2.8 1.1-5.3.7-7.4-1.1-.7 1.2-1.5 2.2-2.4 3-1 .9-1.7 1.7-2 2.1-.5.8-.7 1.6-.6 2.5-.5-.2-1-.5-1.4-.8-1-.6-1.7-1.4-2-2.1zm15.5-13.4l-.4-1-5.9 2.3.4 1.1c.5 1.3 1.1 2.1 1.7 2.6.8.5 1.8.5 3 0l.1-.1c1.1-.4 1.7-1.1 1.7-2.1.1-.6-.1-1.5-.6-2.8zM240 120.7c-.1-.4-.2-1.9-.2-4.5 0-.4 0-.8-.1-1-.1-.5-.7-1.1-1.7-1.8l9.1-1.9c-2 2.5-2.7 5.1-2.2 7.6.4 2.1 1.4 3 2.9 2.7 1.1-.2 1.9-1.4 2.3-3.7.6-2.6 1.1-4.4 1.5-5.2.9-1.7 2.3-2.7 4.3-3.1 2.1-.4 3.8 0 5.2 1.2 1.3 1.1 2.1 2.7 2.6 4.8.1.6.2 1.4.1 2.2-.1.9-.1 1.5 0 1.8.1.4.6.8 1.5 1.3l-8.5 1.8c1.9-2.4 2.6-4.6 2.2-6.6-.2-1.1-.7-1.5-1.5-1.4-.5.1-.9.5-1.1 1.1-.2.8-.4 1.9-.7 3.5-.9 4.3-3 6.7-6.1 7.4-2.2.4-4.2.1-6.1-1.2-1.8-1.1-3-2.8-3.5-5z"/><g><path d="M88.8 257.7c.6-.3 1-.8 1.2-1.4l4.7-10.8c-.5-.2-1.1-.2-1.9-.1L95 242l4.6 2-6 13.8c-.3.6-.3 1.2-.2 1.8l-4.6-1.9zM105.6 262.6c-1.6.6-3.2.6-4.7.1-.9-.3-1.6-.6-2.2-1-.5-.3-.9-.5-1-.6-.2-.1-.6-.1-1 0l1.5-4.7c.2.6.7 1.2 1.4 1.9.7.6 1.4 1.1 2.2 1.3.4.1.8.2 1.1.2 1.3-.1 2.3-.7 3.2-1.9-1 .3-2.1.3-3.4-.2-.2-.1-.5-.2-.8-.3-1.5-.6-2.5-1.6-3.1-2.9-.6-1.3-.7-2.7-.1-4.3.1-.2.2-.5.3-.8.6-1.3 1.6-2.2 3.1-2.8 1.5-.6 3-.6 4.7-.1.5.2 1.1.4 1.8.8 1.5.7 2.4 1.9 2.8 3.6.5 1.8.4 3.7-.3 5.7-.4 1.3-1.1 2.5-2.1 3.6-1 1.2-2.2 2-3.4 2.4zm.6-12.8c-.7-.3-1.4-.4-2.1-.1-.7.3-1.2.8-1.6 1.5-.3.7-.4 1.5-.1 2.2.2.7.7 1.3 1.4 1.6.7.3 1.4.3 2.1 0 .7-.3 1.2-.8 1.6-1.5.3-.7.4-1.5.1-2.2-.2-.7-.7-1.2-1.4-1.5zM121.5 266.3c-1.5.8-3.1 1-4.7.7-.9-.2-1.6-.4-2.3-.7-.6-.3-.9-.4-1.1-.5-.2 0-.6 0-1 .1l.9-4.8c.3.6.8 1.1 1.6 1.7.8.5 1.6.9 2.4 1 .4.1.8.1 1.1 0 1.2-.2 2.2-1 2.9-2.3-.9.4-2 .5-3.4.3-.3 0-.5-.1-.8-.2-1.5-.4-2.7-1.3-3.4-2.5-.8-1.2-1-2.6-.7-4.3 0-.3.1-.5.2-.8.4-1.3 1.3-2.4 2.7-3.2 1.4-.8 2.9-1 4.6-.7.6.1 1.2.3 1.9.5 1.5.5 2.6 1.6 3.3 3.2.7 1.7.8 3.6.4 5.7-.3 1.4-.8 2.7-1.6 3.8-.8 1.4-1.8 2.4-3 3zm-1.1-12.8c-.7-.2-1.4-.2-2.1.2-.7.4-1.1 1-1.4 1.7-.2.8-.2 1.5.1 2.2.3.7.9 1.2 1.6 1.4.7.2 1.4.2 2.1-.2.7-.4 1.1-1 1.4-1.7.2-.8.2-1.5-.1-2.2-.3-.7-.9-1.2-1.6-1.4zM137.4 259.8c-.4.4-1.3 1-2.6 1.9-1.9 1.2-3 2.5-3.2 3.9l4.5.3c.6 0 1.2-.1 2-.5l-.9 3.9-10-.7.2-3.5c.1-2 1.8-4 5.1-6.2.4-.2.9-.6 1.4-.9.6-.5 1-1 1-1.5 0-.6-.3-1-1-1.2-.2-.1-.5-.1-.8-.1-1.7-.1-3.3.5-4.8 1.8l.4-5.6c.3.5.7.8.9.8 0 0 .5-.1 1.5-.2.7-.1 1.4-.1 2.1-.1 1.7.1 3 .6 4 1.4 1.2 1 1.7 2.3 1.4 4-.1 1-.5 1.9-1.2 2.5zM152.6 262.1c-.4 0-1 0-1.9-.1-.8-.1-1.5-.1-1.9-.1-.5 0-1.1.4-1.7 1 .4-2.5 1.6-3.8 3.6-4 .4 0 .9 0 1.6.1 1 .1 1.6.2 1.8.2.6 0 1.1-.4 1.7-.9v.6c.1.8-.2 1.5-.9 2.1-.5.6-1.3 1-2.3 1.1zM173.9 255.5c-.3.5-.9 1.3-1.9 2.6-1.4 1.7-2.1 3.3-1.8 4.7l4.4-1.1c.6-.1 1.1-.5 1.8-1.1l.3 4-9.8 2.4-.8-3.4c-.5-1.9.5-4.4 3-7.4.3-.4.7-.8 1.1-1.3.5-.7.6-1.2.5-1.7-.1-.6-.6-.9-1.3-.9-.2 0-.5 0-.8.1-1.7.4-3 1.5-4 3.2l-1.4-5.4c.5.4.9.6 1.1.5 0 0 .5-.2 1.3-.7.6-.3 1.3-.5 1.9-.7 1.6-.4 3.1-.4 4.3.1 1.4.6 2.3 1.7 2.6 3.4.1.9-.1 1.8-.5 2.7zM186.9 261.2c-1.9.7-3.9.6-5.9-.5-2-1.1-3.4-2.7-4.2-4.9-.9-2.2-.9-4.4-.1-6.5.8-2.1 2.1-3.5 4.1-4.3 2-.7 3.9-.6 5.9.5 2 1 3.4 2.7 4.2 4.9.9 2.2.9 4.4.1 6.5-.8 2.1-2.1 3.6-4.1 4.3zm-5-13c-.8.3-1.3 1-1.7 2-.4 1.3-.3 2.7.3 4.2s1.5 2.6 2.6 3.3c1 .5 1.8.7 2.6.4.8-.3 1.3-1 1.7-2 .4-1.2.4-2.6-.2-4.2-.6-1.5-1.5-2.6-2.6-3.3-1-.6-1.9-.7-2.7-.4zM197.1 256.7c.1-.6 0-1.3-.3-1.8l-5.3-10.5c-.5.3-.9.7-1.3 1.4L189 242l4.4-2.2 6.8 13.4c.3.6.7 1 1.3 1.3l-4.4 2.2zM204.6 236.8l3.9 13.6-3.8 2.3-3.7-13.6-2.9 1.8c-.5.3-1 .9-1.5 1.7l-1.5-3.7 8.9-5.5c.2 1.5.3 2.6.6 3.4z"/></g><g><path d="M141.9 280.6c-76.3 0-138.5-62.1-138.5-138.5C3.4 65.8 65.5 3.7 141.9 3.7c76.3 0 138.5 62.1 138.5 138.5-.1 76.3-62.2 138.4-138.5 138.4zm0-274C67.1 6.6 6.3 67.4 6.3 142.1c0 74.8 60.8 135.6 135.6 135.6s135.6-60.8 135.6-135.6C277.4 67.4 216.6 6.6 141.9 6.6z"/></g></svg>