<svg xmlns="http://www.w3.org/2000/svg" viewBox="0 0 283.5 283.5"><path d="M33.9 108.7c-2.3-.6-4.3-.5-6 .3-1.4.7-2.3 1.5-2.6 2.6-.3 1.1 0 2.3.9 3.6 1.1 1.5 2.8 2.6 5.1 3.2 2.3.6 4.3.5 6-.2 1.4-.7 2.3-1.6 2.6-2.6.3-1.1 0-2.3-.9-3.6-1.1-1.7-2.8-2.7-5.1-3.3zM43.3 86.7c-2.1-1.1-4.1-1.4-5.9-1-1.5.3-2.5 1-3.1 2-.5 1-.5 2.2.1 3.7.8 1.7 2.2 3.1 4.3 4.2 2.1 1.1 4.1 1.4 5.9 1.1 1.5-.4 2.6-1 3.1-2s.5-2.3-.1-3.7c-.8-1.8-2.2-3.2-4.3-4.3zM51.3 68.2c-1-.8-1.9-1-2.8-.7-.6.3-1.4.9-2.2 2.1l-.7.9 5.4 4.2.7-.9c1.7-2.2 1.5-4.1-.4-5.6zM81.7 45.4c1.2-.7 1.9-1.4 2.2-2.1.4-.8.2-1.8-.5-3l-.1-.1c-.6-1-1.4-1.5-2.4-1.4-.6.1-1.5.5-2.7 1.2l-.9.6 3.2 5.4 1.2-.6zM106.1 249.3c-.7-.3-1.4-.4-2.1-.1-.7.3-1.2.8-1.6 1.5-.3.7-.4 1.5-.1 2.2.2.7.7 1.3 1.4 1.6.7.3 1.4.3 2.1 0 .7-.3 1.2-.8 1.6-1.5.3-.7.4-1.5.1-2.2-.2-.6-.7-1.2-1.4-1.5zM176.8 33.1c.9-.3 1.5-1.1 1.9-2.3v-.1c.4-1.2.2-2-.5-2.7-.4-.4-1.3-.8-2.7-1.2l-1-.3-1.9 6 1.1.4c1.4.4 2.4.5 3.1.2zM122.7 36.4c1.2 1 2.3 1.5 3.4 1.3 1.1-.2 2.1-.9 2.9-2.2 1-1.6 1.3-3.6 1-5.9-.3-2.3-1.2-4.1-2.6-5.4-1.2-1-2.3-1.5-3.4-1.3-1.1.2-2.1.9-2.9 2.2-1 1.6-1.3 3.6-.9 5.9.2 2.2 1.1 4.1 2.5 5.4zM190.5 48.5c1 .5 2.2.5 3.7-.1 1.8-.7 3.2-2.1 4.3-4.2 1.1-2.1 1.5-4 1.1-5.9-.3-1.5-1-2.6-2-3.1s-2.2-.5-3.7.1c-1.7.7-3.1 2.1-4.2 4.2s-1.5 4-1.2 5.9c.4 1.5 1 2.6 2 3.1zM120.3 253c-.7-.2-1.4-.2-2.1.2-.7.4-1.1 1-1.4 1.7-.2.8-.2 1.5.1 2.2.3.7.9 1.2 1.6 1.4.7.2 1.4.2 2.1-.2.7-.4 1.1-1 1.4-1.7.2-.8.2-1.5-.1-2.2-.3-.7-.8-1.2-1.6-1.4zM149.7 25.4c.1-1.3-.3-2.2-1.1-2.7-.6-.4-1.6-.6-3-.6l-1.1-.1-.3 6.9 1.2.1c2.8 0 4.2-1.1 4.3-3.6zM100.9 42.7c1.4.8 2.6 1 3.6.6 1.1-.4 1.9-1.3 2.4-2.8.6-1.8.5-3.8-.3-6s-2-3.8-3.7-4.7c-1.4-.8-2.6-1-3.6-.6-1.1.4-1.9 1.3-2.4 2.8-.6 1.8-.5 3.8.3 6 .9 2.1 2.1 3.7 3.7 4.7zM184.5 248.1c-1-.5-1.8-.6-2.6-.4-.8.3-1.3 1-1.7 2-.4 1.3-.3 2.7.3 4.2s1.5 2.6 2.6 3.3c1 .5 1.8.7 2.6.4.8-.3 1.3-1 1.7-2 .4-1.2.4-2.6-.2-4.2-.7-1.6-1.6-2.7-2.7-3.3zM248.3 100.9c.8.5 1.8.5 3 0l.1-.1c1.1-.4 1.7-1.1 1.7-2.1 0-.6-.2-1.5-.7-2.8l-.4-1-5.9 2.3.4 1.1c.6 1.3 1.2 2.1 1.8 2.6z"/><path d="M141.8 3.3C65.3 3.3 3.4 65.3 3.4 141.7s62 138.4 138.4 138.4 138.4-62 138.4-138.4S218.2 3.3 141.8 3.3zm88 49.9l4.6 5.4c-.9.1-1.7.4-2.4 1l-3.5 3 6.8-.9c.3 0 .6-.4.9-1.1l5 5.8c-1.3-.4-2.1-.6-2.5-.5l-7.2.8-7.1 13.6c-.2.4-.3 1.2-.2 2.4l-5.2-6.1c.8-.1 1.2-.2 1.3-.4l4.9-8.8-2.7.3-4.6 3.9c-.7.6-1.1 1.4-1.3 2.3l-4.6-5.4c.9-.1 1.7-.4 2.4-1l14.1-12c.7-.7 1.2-1.4 1.3-2.3zm-15.7-9.3c3-.2 5.8.6 8.4 2.6.4.3.8.7 1.1 1.2s.6.7.7.8c.4.3 1 .4 1.7.3l-4.5 5.6c-.3-1.9-1.1-3.4-2.5-4.5-.6-.5-1.2-.8-1.9-.9-2.7-.6-5.1.4-7.2 3-1.2 1.5-1.8 3-1.9 4.7-.1 1.8.6 3.3 2 4.5 1.5 1.2 3.1 1.7 5 1.6l-4.5 5.6c-.1-.7-.3-1.2-.7-1.5-.4-.2-1.3-.8-2.6-1.7-2.6-2-4.1-4.5-4.4-7.4-.2-1.5 0-3.2.6-4.9.5-1.7 1.3-3.2 2.3-4.4 2.2-2.8 5-4.4 8.4-4.6zm-22.5-13.2c2.9-1.2 5.7-1.1 8.2.3 2.6 1.4 4.2 3.6 4.8 6.7.7 3.1.2 6.1-1.4 9.1-1.6 3-3.9 5.1-6.8 6.2-2.9 1.2-5.7 1.1-8.3-.3-2.5-1.4-4.2-3.6-4.8-6.7-.7-3.1-.2-6.1 1.4-9.1 1.7-2.9 4-5 6.9-6.2zm-27.1 9.6l5.6-17.6c.3-.9.3-1.8-.1-2.6l8 2.5c5.1 1.6 6.8 5 5.2 10.1-.9 2.9-2.7 4.6-5.5 5.1.5 1.3.8 2.6.8 3.8.1 1.4.2 2.4.4 2.9.3.8.8 1.5 1.6 2l-1.5.6c-1.2.3-2.2.3-3 .1-1.7-.4-2.6-1.9-2.8-4.5-.1-1.8-.2-3-.3-3.6-.1-.5-.3-1.1-.6-1.9l-1.3-.4-1.6 5.1c-.3.9-.2 1.7.1 2.6l-6.7-2.1c.9-.5 1.5-1.2 1.7-2.1zm8.4 46.7s-84.8 20.7-86.4 19.5l-.9-4.2C84.2 94.2 81.5 78 81.7 77c1.8-.2 27.3 15.4 29.3 14.9 0 0 8.2-24 9.4-24.5 1.8-.6 23.1 16 24.7 15.9 1.1-.5 15.4-23.5 17-24.8L172.9 87zm-34.4-49.1l.9-18.5c0-.9-.2-1.8-.7-2.5l8.4.4c5.3.3 7.9 3.1 7.7 8.5-.1 2-.7 3.7-2 5.2-1.6 1.8-3.8 2.7-6.8 2.5l-1.8-.1-.2 4.8c0 .9.2 1.7.8 2.5l-7-.3c.3-.7.6-1.5.7-2.5zm-22-15.2c1.7-2.7 4-4.2 6.8-4.6 2.9-.4 5.5.4 7.9 2.5 2.4 2.1 3.8 4.8 4.3 8.2.5 3.4-.1 6.4-1.8 9.1-1.7 2.7-4 4.2-6.9 4.6-2.9.4-5.5-.4-7.8-2.6-2.4-2.1-3.8-4.8-4.3-8.2-.5-3.3.1-6.3 1.8-9zm-24.5 8c1.1-3 3-5 5.7-6s5.5-.7 8.2.8c2.8 1.6 4.7 3.9 5.9 7.1 1.2 3.2 1.2 6.3.1 9.2-1.1 3-3 5-5.7 6s-5.4.7-8.2-.8c-2.8-1.6-4.7-3.9-5.9-7.1-1.1-3.2-1.2-6.3-.1-9.2zm-15.1 4.7c4.6-2.7 8.2-1.8 11.1 2.8 1.5 2.6 1.6 5.1.2 7.4 1.3.5 2.4 1.1 3.4 1.9 1.1.9 1.9 1.4 2.4 1.6.8.3 1.7.4 2.6.1-.2.5-.3 1-.5 1.5-.6 1.1-1.2 1.8-1.9 2.3-1.4 1-3.2.7-5.2-.9-1.5-1.1-2.4-1.8-2.9-2.2l-1.8-.9-1.3 1 2.8 4.6c.5.8 1.1 1.3 2 1.7l-6.1 3.6c.1-.9-.1-1.7-.6-2.5l-9.5-15.9c-.5-.8-1.1-1.4-2-1.7l7.3-4.4zm-11.6 7.8l4.3 3.5c-1.2.2-2.1.6-2.7 1.2l-3.6 3.2 10.9 12.2c.4.4 1.1.9 2.2 1.4l-5.2 4.7c0-.9-.3-1.7-1-2.4L59.3 54.6l-3.6 3.2c-.6.5-1.1 1.4-1.5 2.5l-3-4.7 14.1-12.4zm-24.9 98c-.7-.6-1.5-.9-2.4-1l-18.4-1.7c-.9-.1-1.8.1-2.5.6l.6-6.9c1 .6 1.8.9 2.4.9l16.3 1.5.5-6c.1-.8-.2-1.7-.7-2.8l5.4 1.4-1.2 14zm4.2-24.5c-.7 2.8-2.5 4.9-5.4 6.2-2.9 1.4-5.9 1.6-9.2.7-3.3-.9-5.8-2.6-7.6-5.2-1.8-2.6-2.3-5.3-1.6-8.1.7-2.8 2.6-4.9 5.4-6.3 2.9-1.4 5.9-1.6 9.2-.7 3.3.9 5.8 2.6 7.6 5.2 1.8 2.7 2.4 5.4 1.6 8.2zM52 96.8c-1.3 2.6-3.5 4.2-6.6 4.9-3.1.7-6.1.3-9.2-1.2-3-1.5-5.1-3.8-6.4-6.7-1.2-2.9-1.2-5.7.1-8.2 1.3-2.6 3.5-4.2 6.6-5 3.1-.7 6.1-.3 9.2 1.2 3 1.5 5.1 3.8 6.4 6.7 1.3 3 1.3 5.7-.1 8.3zm3-12.2L40.4 73.2c-.7-.6-1.6-.9-2.5-.8l5.2-6.6c3.3-4.2 7.1-4.7 11.3-1.4 1.6 1.2 2.6 2.8 3 4.6.6 2.3-.1 4.7-1.9 7l-1.1 1.4 3.8 2.9c.7.6 1.6.8 2.5.8l-4.3 5.6c-.2-.8-.6-1.5-1.4-2.1zm38.2 174.6l-4.5-2c.6-.3 1-.8 1.2-1.4l4.7-10.8c-.5-.2-1.1-.2-1.9-.1l2.2-3.4 4.6 2-6 13.8c-.4.7-.4 1.3-.3 1.9zm17.8-3c-.4 1.3-1.1 2.5-2.1 3.6s-2.1 1.9-3.4 2.3c-1.6.6-3.2.6-4.7.1-.9-.3-1.6-.6-2.2-1-.5-.3-.9-.5-1-.6-.2-.1-.6-.1-1 0l1.5-4.7c.2.6.7 1.2 1.4 1.9s1.4 1.1 2.2 1.3c.4.1.8.2 1.1.2 1.3-.1 2.3-.7 3.2-1.9-1 .3-2.1.3-3.4-.2-.2-.1-.5-.2-.8-.3-1.5-.6-2.5-1.6-3.1-2.9-.6-1.3-.7-2.7-.1-4.3.1-.2.2-.5.3-.8.6-1.3 1.6-2.2 3.1-2.8 1.5-.6 3-.6 4.7-.1.5.2 1.1.4 1.8.8 1.5.7 2.4 1.9 2.8 3.6.4 1.8.3 3.8-.3 5.8zm15 3c-.3 1.4-.8 2.7-1.6 3.8-.8 1.2-1.9 2.1-3.1 2.8-1.5.8-3.1 1-4.7.7-.9-.2-1.6-.4-2.3-.7-.6-.3-.9-.4-1.1-.5-.2 0-.6 0-1 .1l.9-4.8c.3.6.8 1.1 1.6 1.7.8.5 1.6.9 2.4 1 .4.1.8.1 1.1 0 1.2-.2 2.2-1 2.9-2.3-.9.4-2 .5-3.4.3-.3 0-.5-.1-.8-.2-1.5-.4-2.7-1.3-3.4-2.5-.8-1.2-1-2.6-.7-4.3 0-.3.1-.5.2-.8.4-1.3 1.3-2.4 2.7-3.2 1.4-.8 2.9-1 4.6-.7.6.1 1.2.3 1.9.5 1.5.5 2.6 1.6 3.3 3.2.8 1.9.9 3.8.5 5.9zm12.6-2.4c-.2 1-.6 1.9-1.2 2.6-.4.4-1.3 1-2.6 1.9-1.9 1.2-3 2.5-3.2 3.9l4.5.3c.6 0 1.2-.1 2-.5l-.9 3.9-10-.7.2-3.5c.1-2 1.8-4 5.1-6.2.4-.2.9-.6 1.4-.9.6-.5 1-1 1-1.5 0-.6-.3-1-1-1.2-.2-.1-.5-.1-.8-.1-1.7-.1-3.3.5-4.8 1.8l.4-5.6c.3.5.7.8.9.8 0 0 .5-.1 1.5-.2.7-.1 1.4-.1 2.1-.1 1.7.1 3 .6 4 1.4 1.1.9 1.6 2.2 1.4 3.9zm-31.8-66.6c.4.1 30.3-2.2 30-1.1-.1.3-2.1 27.4-2.1 27.4-.4.2-76 8.7-76.1 8.4-.1-.2 6.3-37.8 7.5-39.2 1.2-1.4 46.4-35.9 46.6-36.3 0 0-15.2-17.1-15.4-17.3-.3-.2-16.9 25.1-17.6 25.7-.5.5-22.2 4-22.5 3.8l8.4-35.7c.3-.5 65.3-14.3 66.6-13.8 1 .4 10 39.3 10 39.5.1.3-35.2 38.1-35.4 38.6zm48.2 70.3c-.6.6-1.4 1-2.4 1.1-.4 0-1 0-1.9-.1-.8-.1-1.5-.1-1.9-.1-.5 0-1.1.4-1.7 1 .4-2.5 1.6-3.8 3.6-4 .4 0 .9 0 1.6.1 1 .1 1.6.2 1.8.2.6 0 1.1-.4 1.7-.9v.6c.1.8-.2 1.5-.8 2.1zm11.7 6l-.8-3.4c-.5-1.9.5-4.4 3-7.5.3-.4.7-.8 1.1-1.3.5-.7.6-1.2.5-1.7-.1-.6-.6-.9-1.3-.9-.2 0-.5 0-.8.1-1.7.4-3 1.5-4 3.2l-1.4-5.4c.5.4.9.6 1.1.5 0 0 .5-.2 1.3-.7.6-.3 1.3-.5 1.9-.7 1.6-.4 3.1-.4 4.3.1 1.4.6 2.3 1.7 2.6 3.4.2 1 0 2-.4 2.8-.3.5-.9 1.3-1.9 2.6-1.4 1.7-2.1 3.3-1.8 4.7l4.4-1.1c.6-.1 1.1-.5 1.8-1.1l.3 4-9.9 2.4zm24.2-10c-.8 2.1-2.1 3.5-4.1 4.3-1.9.7-3.9.6-5.9-.5-2-1.1-3.4-2.7-4.2-4.9-.9-2.2-.9-4.4-.1-6.5.8-2.1 2.1-3.5 4.1-4.3 2-.7 3.9-.6 5.9.5 2 1 3.4 2.7 4.2 4.9.8 2.2.9 4.4.1 6.5zm6.1-.3c.1-.6 0-1.3-.3-1.8l-5.3-10.5c-.5.3-.9.7-1.3 1.4l-1.2-3.8 4.4-2.2 6.8 13.4c.3.6.7 1 1.3 1.3l-4.4 2.2zm7.6-3.9l-3.7-13.6-2.9 1.8c-.5.3-1 .9-1.5 1.7l-1.5-3.7 8.9-5.5c.1 1.5.3 2.6.5 3.4l3.9 13.6-3.7 2.3zM224 211l-67.4 3.8s-11.6-33.2-11.5-33.4c.3-.3 29-1.9 29.4-1.7.1.2 13 18.3 13 18.3l21.1-29.5s-60.6.9-60.7.6c0 0 .5-34.6.6-34.9 0 0 .5-24.3.5-24.8 0 0 68.2-6.6 68.4-6.3.2.3.9 25.6.7 26.1-.3.1-44.3 4.4-44.6 4.7l-.6 11.3c.2.1 53.1-1.6 53.4-1.5.3.1-.5 33-.5 33-.1.6-1.5 34.2-1.8 34.3zm.3-128.3c.9.1 1.8-.1 2.5-.6l15.9-9.5c.8-.5 1.4-1.1 1.7-2l7.1 11.9-4.6 2.8c.1-.9-.1-1.8-.5-2.5l-2.7-4.5-3.1 1.8 2 3.4c.3.5.8 1 1.5 1.3l-5 3c0-.8-.2-1.5-.5-2l-2-3.3-5.3 3.2 3.1 5.2c.4.7 1.1 1.3 2.2 1.9l-5.2 2.1-7.1-12.2zm14.4 21.6c1.4-1.2 2.2-2.1 2.6-2.5.3-.3.7-.9 1.2-1.7l-.5-1.3-5 2c-.9.3-1.5.9-2 1.7l-2.6-6.6c.9.2 1.7.2 2.6-.1l17.2-6.7c.9-.3 1.5-.9 2-1.7l3.1 7.9c1.9 4.9.4 8.4-4.6 10.4-2.8 1.1-5.3.7-7.4-1.1-.7 1.2-1.5 2.2-2.4 3-1 .9-1.7 1.7-2 2.1-.5.8-.7 1.6-.6 2.5-.5-.2-1-.5-1.4-.8-1-.7-1.6-1.5-2-2.2-.7-1.5-.1-3.2 1.8-4.9zM259 116c-.2-1.1-.7-1.5-1.5-1.4-.5.1-.9.5-1.1 1.1-.1.8-.4 1.9-.7 3.5-.9 4.3-3 6.7-6.1 7.4-2.2.4-4.2.1-6.1-1.2-1.9-1.2-3.1-2.9-3.5-5.1-.1-.4-.2-1.9-.2-4.5 0-.4 0-.8-.1-1-.1-.5-.7-1.1-1.7-1.8l9.1-1.9c-2 2.5-2.7 5.1-2.2 7.6.4 2.1 1.4 3 2.9 2.7 1.1-.2 1.9-1.4 2.3-3.7.6-2.6 1.1-4.4 1.5-5.2.9-1.7 2.3-2.7 4.3-3.1 2.1-.4 3.8 0 5.2 1.1 1.3 1.1 2.1 2.7 2.6 4.8.1.6.2 1.4.1 2.3-.1.9-.1 1.5 0 1.8.1.4.6.8 1.5 1.3l-8.5 1.8c1.9-2.2 2.6-4.4 2.2-6.5z"/></svg>